HIERARCHY
ROOT Hips
{
	OFFSET 0.000000 0.000000 0.000000
	CHANNELS 6 Xposition Yposition Zposition Xrotation Yrotation Zrotation
	JOINT Thigh.L
	{
		OFFSET 0.054984 0.030922 -0.092436
		CHANNELS 3 Xrotation Yrotation Zrotation
		JOINT Shin.L
		{
			OFFSET 0.054619 0.014450 -0.412924
			CHANNELS 3 Xrotation Yrotation Zrotation
			JOINT Foot.L
			{
				OFFSET -0.041972 0.033284 -0.434223
				CHANNELS 3 Xrotation Yrotation Zrotation
				JOINT Toe.L
				{
					OFFSET 0.045126 -0.120245 -0.064123
					CHANNELS 3 Xrotation Yrotation Zrotation
					End Site
					{
						OFFSET 0.000000 0.050000 0.000000
					}
				}
			}
		}
	}
	JOINT Thigh.R
	{
		OFFSET -0.060327 0.027872 -0.102994
		CHANNELS 3 Xrotation Yrotation Zrotation
		JOINT Shin.R
		{
			OFFSET -0.043808 0.020263 -0.396458
			CHANNELS 3 Xrotation Yrotation Zrotation
			JOINT Foot.R
			{
				OFFSET 0.015607 0.021653 -0.443167
				CHANNELS 3 Xrotation Yrotation Zrotation
				JOINT Toe.R
				{
					OFFSET -0.037324 -0.121015 -0.064032
					CHANNELS 3 Xrotation Yrotation Zrotation
					End Site
					{
						OFFSET 0.000000 0.050000 0.000000
					}
				}
			}
		}
	}
	JOINT Spine
	{
		OFFSET -0.002305 0.020187 0.110219
		CHANNELS 3 Xrotation Yrotation Zrotation
		JOINT Spine.2
		{
			OFFSET 0.007077 0.003306 0.135479
			CHANNELS 3 Xrotation Yrotation Zrotation
			JOINT Chest
			{
				OFFSET -0.010440 -0.023212 0.049861
				CHANNELS 3 Xrotation Yrotation Zrotation
				JOINT Neck
				{
					OFFSET -0.009677 0.028751 0.163657
					CHANNELS 3 Xrotation Yrotation Zrotation
					JOINT Head
					{
						OFFSET 0.022599 -0.021557 0.164157
						CHANNELS 3 Xrotation Yrotation Zrotation
						End Site
						{
							OFFSET 0.000000 0.050000 0.000000
						}
					}
				}
				JOINT Clavicle.L
				{
					OFFSET 0.043549 0.007940 0.083784
					CHANNELS 3 Xrotation Yrotation Zrotation
					JOINT UpperArm.L
					{
						OFFSET 0.108168 0.014882 0.062098
						CHANNELS 3 Xrotation Yrotation Zrotation
						JOINT ForeArm.L
						{
							OFFSET 0.265693 0.035816 -0.076101
							CHANNELS 3 Xrotation Yrotation Zrotation
							JOINT Hand.L
							{
								OFFSET 0.265757 0.005818 0.021586
								CHANNELS 3 Xrotation Yrotation Zrotation
								JOINT Thumb1.L
								{
									OFFSET 0.154578 0.002618 0.009713
									CHANNELS 3 Xrotation Yrotation Zrotation
									JOINT Thumb2.L
									{
										OFFSET 0.029894 0.000654 0.002428
										CHANNELS 3 Xrotation Yrotation Zrotation
										End Site
										{
											OFFSET 0.024912 0.000545 0.002023
										}
									}
								}
								JOINT Index1.L
								{
									OFFSET 0.137578 0.002618 0.009713
									CHANNELS 3 Xrotation Yrotation Zrotation
									JOINT Index2.L
									{
										OFFSET 0.029894 0.000654 0.002428
										CHANNELS 3 Xrotation Yrotation Zrotation
										JOINT Index3.L
										{
											OFFSET 0.021923 0.000480 0.001781
											CHANNELS 3 Xrotation Yrotation Zrotation
											End Site
											{
												OFFSET 0.017937 0.000393 0.001457
											}
										}
									}
								}
								JOINT Middle1.L
								{
									OFFSET 0.119578 0.002618 0.009713
									CHANNELS 3 Xrotation Yrotation Zrotation
									JOINT Middle2.L
									{
										OFFSET 0.030891 0.000676 0.002509
										CHANNELS 3 Xrotation Yrotation Zrotation
										JOINT Middle3.L
										{
											OFFSET 0.021923 0.000480 0.001781
											CHANNELS 3 Xrotation Yrotation Zrotation
											End Site
											{
												OFFSET 0.017937 0.000393 0.001457
											}
										}
									}
								}
								JOINT Ring1.L
								{
									OFFSET 0.101578 0.002618 0.009713
									CHANNELS 3 Xrotation Yrotation Zrotation
									JOINT Ring2.L
									{
										OFFSET 0.028898 0.000633 0.002347
										CHANNELS 3 Xrotation Yrotation Zrotation
										JOINT Ring3.L
										{
											OFFSET 0.019930 0.000436 0.001619
											CHANNELS 3 Xrotation Yrotation Zrotation
											End Site
											{
												OFFSET 0.016940 0.000371 0.001376
											}
										}
									}
								}
								JOINT Pinky1.L
								{
									OFFSET 0.085578 0.002618 0.009713
									CHANNELS 3 Xrotation Yrotation Zrotation
									JOINT Pinky2.L
									{
										OFFSET 0.023916 0.000524 0.001943
										CHANNELS 3 Xrotation Yrotation Zrotation
										JOINT Pinky3.L
										{
											OFFSET 0.016940 0.000371 0.001376
											CHANNELS 3 Xrotation Yrotation Zrotation
											End Site
											{
												OFFSET 0.013951 0.000305 0.001133
											}
										}
									}
								}
							}
						}
					}
				}
				JOINT Clavicle.R
				{
					OFFSET -0.041867 0.014022 0.083285
					CHANNELS 3 Xrotation Yrotation Zrotation
					JOINT UpperArm.R
					{
						OFFSET -0.093443 0.009865 0.057576
						CHANNELS 3 Xrotation Yrotation Zrotation
						JOINT ForeArm.R
						{
							OFFSET -0.281959 0.022967 -0.042849
							CHANNELS 3 Xrotation Yrotation Zrotation
							JOINT Hand.R
							{
								OFFSET -0.262421 0.018556 -0.003480
								CHANNELS 3 Xrotation Yrotation Zrotation
								JOINT Thumb1.R
								{
									OFFSET -0.154691 0.008463 -0.001587
									CHANNELS 3 Xrotation Yrotation Zrotation
									JOINT Thumb2.R
									{
										OFFSET -0.029923 0.002116 -0.000397
										CHANNELS 3 Xrotation Yrotation Zrotation
										End Site
										{
											OFFSET -0.024936 0.001763 -0.000331
										}
									}
								}
								JOINT Index1.R
								{
									OFFSET -0.137691 0.008463 -0.001587
									CHANNELS 3 Xrotation Yrotation Zrotation
									JOINT Index2.R
									{
										OFFSET -0.029923 0.002116 -0.000397
										CHANNELS 3 Xrotation Yrotation Zrotation
										JOINT Index3.R
										{
											OFFSET -0.021943 0.001552 -0.000291
											CHANNELS 3 Xrotation Yrotation Zrotation
											End Site
											{
												OFFSET -0.017954 0.001270 -0.000238
											}
										}
									}
								}
								JOINT Middle1.R
								{
									OFFSET -0.119691 0.008463 -0.001587
									CHANNELS 3 Xrotation Yrotation Zrotation
									JOINT Middle2.R
									{
										OFFSET -0.030920 0.002186 -0.000410
										CHANNELS 3 Xrotation Yrotation Zrotation
										JOINT Middle3.R
										{
											OFFSET -0.021943 0.001552 -0.000291
											CHANNELS 3 Xrotation Yrotation Zrotation
											End Site
											{
												OFFSET -0.017954 0.001270 -0.000238
											}
										}
									}
								}
								JOINT Ring1.R
								{
									OFFSET -0.101691 0.008463 -0.001587
									CHANNELS 3 Xrotation Yrotation Zrotation
									JOINT Ring2.R
									{
										OFFSET -0.028925 0.002045 -0.000384
										CHANNELS 3 Xrotation Yrotation Zrotation
										JOINT Ring3.R
										{
											OFFSET -0.019948 0.001411 -0.000265
											CHANNELS 3 Xrotation Yrotation Zrotation
											End Site
											{
												OFFSET -0.016956 0.001199 -0.000225
											}
										}
									}
								}
								JOINT Pinky1.R
								{
									OFFSET -0.085691 0.008463 -0.001587
									CHANNELS 3 Xrotation Yrotation Zrotation
									JOINT Pinky2.R
									{
										OFFSET -0.023938 0.001693 -0.000317
										CHANNELS 3 Xrotation Yrotation Zrotation
										JOINT Pinky3.R
										{
											OFFSET -0.016956 0.001199 -0.000225
											CHANNELS 3 Xrotation Yrotation Zrotation
											End Site
											{
												OFFSET -0.013964 0.000987 -0.000185
											}
										}
									}
								}
							}
						}
					}
				}
			}
		}
	}
}
MOTION
Frames: 4
Frame Time: 0.04166667
-0.002705 -0.033759 1.110772 -4.492539 0.934373 1.261864 2.963134 1.928628 -1.604321 3.864397 -0.544482 -10.440109 -7.382505 -0.251776 8.640505 2.942005 -3.686090 0.453382 0.865074 -1.471599 1.478546 5.575675 0.982759 4.989894 -4.542710 -3.510534 -4.653171 0.804543 -2.145722 -1.309734 4.528888 -0.144480 2.202692 4.401336 -3.876772 -2.774935 -5.448529 3.344548 0.209905 9.048333 0.651289 3.503250 14.552177 1.654609 3.707959 6.060078 20.736028 2.980701 18.243388 49.265821 -23.376054 17.292575 -2.027680 -19.755726 3.073704 0.691945 -7.545965 0.000000 0.000000 0.000000 0.000000 0.000000 0.000000 0.000000 0.000000 0.000000 0.000000 0.000000 0.000000 0.000000 0.000000 0.000000 0.000000 0.000000 0.000000 0.000000 0.000000 0.000000 0.000000 0.000000 0.000000 0.000000 0.000000 0.000000 0.000000 0.000000 0.000000 0.000000 0.000000 0.000000 0.000000 0.000000 0.000000 0.000000 0.000000 0.000000 0.000000 0.000000 0.000000 2.669628 -13.910946 -0.269967 32.523428 -53.058526 29.789807 10.414520 3.103679 26.552860 -4.152484 -3.303741 3.868828 0.000000 0.000000 0.000000 0.000000 0.000000 0.000000 0.000000 0.000000 0.000000 0.000000 0.000000 0.000000 0.000000 0.000000 0.000000 0.000000 0.000000 0.000000 0.000000 0.000000 0.000000 0.000000 0.000000 0.000000 0.000000 0.000000 0.000000 0.000000 0.000000 0.000000 0.000000 0.000000 0.000000 0.000000 0.000000 0.000000 0.000000 0.000000 0.000000 0.000000 0.000000 0.000000
-0.002364 -0.033190 1.110709 -4.368757 0.927285 1.127198 2.885756 2.014160 -1.654592 3.749676 -0.646531 -10.370561 -7.380283 -0.220034 8.805112 2.906245 -3.801580 0.474488 0.768816 -1.459012 1.463384 5.552543 1.013764 5.067470 -4.599330 -3.533801 -4.579341 0.811206 -2.215418 -1.333343 4.455979 -0.252482 2.219828 4.124879 -3.704548 -2.764689 -5.085058 3.345798 0.202524 8.902985 0.656842 3.617219 14.567609 1.804824 3.621714 5.791114 20.663770 3.103050 18.237887 49.306865 -23.274011 17.420469 -2.011828 -19.624908 2.902951 0.840196 -7.463701 0.000000 0.000000 0.000000 0.000000 0.000000 0.000000 0.000000 0.000000 0.000000 0.000000 0.000000 0.000000 0.000000 0.000000 0.000000 0.000000 0.000000 0.000000 0.000000 0.000000 0.000000 0.000000 0.000000 0.000000 0.000000 0.000000 0.000000 0.000000 0.000000 0.000000 0.000000 0.000000 0.000000 0.000000 0.000000 0.000000 0.000000 0.000000 0.000000 0.000000 0.000000 0.000000 2.426987 -13.828155 -0.295259 32.821392 -53.177444 30.017544 10.605015 3.195110 26.538365 -4.148284 -3.204840 3.731525 0.000000 0.000000 0.000000 0.000000 0.000000 0.000000 0.000000 0.000000 0.000000 0.000000 0.000000 0.000000 0.000000 0.000000 0.000000 0.000000 0.000000 0.000000 0.000000 0.000000 0.000000 0.000000 0.000000 0.000000 0.000000 0.000000 0.000000 0.000000 0.000000 0.000000 0.000000 0.000000 0.000000 0.000000 0.000000 0.000000 0.000000 0.000000 0.000000 0.000000 0.000000 0.000000
-0.001882 -0.032455 1.110642 -4.245944 0.900197 1.072939 2.838535 2.055958 -1.676768 3.595591 -0.672800 -10.259245 -7.353725 -0.157395 8.807584 2.906214 -3.822225 0.496712 0.808506 -1.417695 1.418331 5.344684 1.018657 5.067052 -4.602406 -3.530675 -4.498747 0.823569 -2.269447 -1.365976 4.347820 -0.287089 2.254912 4.025476 -3.621034 -2.774785 -4.942216 3.336551 0.203838 8.923405 0.644010 3.643015 14.544215 1.817733 3.629854 5.661160 20.583931 3.178906 18.342796 49.354989 -23.333138 17.411233 -1.947304 -19.516407 2.683189 0.935983 -7.504992 0.000000 0.000000 0.000000 0.000000 0.000000 0.000000 0.000000 0.000000 0.000000 0.000000 0.000000 0.000000 0.000000 0.000000 0.000000 0.000000 0.000000 0.000000 0.000000 0.000000 0.000000 0.000000 0.000000 0.000000 0.000000 0.000000 0.000000 0.000000 0.000000 0.000000 0.000000 0.000000 0.000000 0.000000 0.000000 0.000000 0.000000 0.000000 0.000000 0.000000 0.000000 0.000000 2.315758 -13.708603 -0.304392 33.086148 -53.327184 30.215883 10.669547 3.279962 26.532140 -4.179304 -3.177278 3.688983 0.000000 0.000000 0.000000 0.000000 0.000000 0.000000 0.000000 0.000000 0.000000 0.000000 0.000000 0.000000 0.000000 0.000000 0.000000 0.000000 0.000000 0.000000 0.000000 0.000000 0.000000 0.000000 0.000000 0.000000 0.000000 0.000000 0.000000 0.000000 0.000000 0.000000 0.000000 0.000000 0.000000 0.000000 0.000000 0.000000 0.000000 0.000000 0.000000 0.000000 0.000000 0.000000
-0.001869 -0.031769 1.110591 -4.175078 0.902316 1.054936 2.826390 2.070054 -1.693765 3.483453 -0.695335 -10.236234 -7.341680 -0.121196 8.822450 2.912534 -3.796838 0.490957 0.866430 -1.408065 1.412175 5.203681 1.020805 5.076300 -4.610180 -3.525325 -4.495340 0.823397 -2.247317 -1.349856 4.302618 -0.274774 2.264317 4.046419 -3.619859 -2.782565 -5.006017 3.327136 0.209997 8.970677 0.662545 3.614246 14.498410 1.793388 3.607910 5.675200 20.566804 3.237270 18.424183 49.367476 -23.379674 17.341708 -1.899596 -19.532053 2.527638 0.970385 -7.516108 0.000000 0.000000 0.000000 0.000000 0.000000 0.000000 0.000000 0.000000 0.000000 0.000000 0.000000 0.000000 0.000000 0.000000 0.000000 0.000000 0.000000 0.000000 0.000000 0.000000 0.000000 0.000000 0.000000 0.000000 0.000000 0.000000 0.000000 0.000000 0.000000 0.000000 0.000000 0.000000 0.000000 0.000000 0.000000 0.000000 0.000000 0.000000 0.000000 0.000000 0.000000 0.000000 2.359920 -13.675301 -0.308819 33.142297 -53.323865 30.275026 10.712804 3.250081 26.511439 -4.226954 -3.143221 3.697720 0.000000 0.000000 0.000000 0.000000 0.000000 0.000000 0.000000 0.000000 0.000000 0.000000 0.000000 0.000000 0.000000 0.000000 0.000000 0.000000 0.000000 0.000000 0.000000 0.000000 0.000000 0.000000 0.000000 0.000000 0.000000 0.000000 0.000000 0.000000 0.000000 0.000000 0.000000 0.000000 0.000000 0.000000 0.000000 0.000000 0.000000 0.000000 0.000000 0.000000 0.000000 0.000000
